<?xml version="1.0" encoding="utf-8"?>
<!-- Generator: Adobe Illustrator 17.1.0, SVG Export Plug-In . SVG Version: 6.00 Build 0)  -->
<svg version="1.2" baseProfile="tiny" id="Calque_1"
	 xmlns="http://www.w3.org/2000/svg" xmlns:xlink="http://www.w3.org/1999/xlink" x="0px" y="0px" viewBox="0 0 256 256"
	 overflow="scroll" xml:space="preserve">
<rect fill="#9999FF" width="256" height="256"/>
<g>
	<path fill="#1A1A2B" d="M206.2,51.7c-5.8-7.9-11-12-11-12.1c-0.3-0.7-1.2-0.9-1.6-1c-0.4,0-2.6-0.9-3.2-1.1
		c-0.6-0.2-34.3-12.5-34.6-12.7c-1-0.5-1.7-0.6-2.6-0.9c-0.9-0.2-2.2-1.2-2.8-1.6c-1.3-0.9-1.9,0-2.6,0.3c-10.2,4-18.2,4.1-19.7,4.1
		v0c0,0,0,0-0.1,0c-0.1,0-0.1,0-0.1,0v0c-1.5,0-9.5,0-19.7-4.1c-0.7-0.3-1.3-1.2-2.6-0.3c-0.6,0.4-1.9,1.4-2.8,1.6
		c-0.9,0.2-1.6,0.3-2.6,0.9C99.9,25,66.1,37.2,65.6,37.4c-0.6,0.2-2.8,1.1-3.2,1.1c-0.4,0-1.3,0.3-1.6,1c0,0.1-5.2,4.2-11,12.1
		c-1.3,1.8-31,34.9-28.2,31.9c0.4-0.4,33.7,28.9,34.4,29.7c0.8,0.8,1.1,0.7,1.7,0.4c0.6-0.3,6.9-4.7,6.9-4.7l-3.2,123.4
		c0,0,0,0.6,0.6,0.6c0.6,0,60.7,0.2,66.1,0c5.4,0.2,65.5,0,66.1,0c0.6,0,0.6-0.6,0.6-0.6L191.4,109c0,0,6.3,4.4,6.9,4.7
		c0.6,0.3,0.9,0.3,1.7-0.4c0.8-0.8,34-30.1,34.4-29.7C237.2,86.6,207.5,53.5,206.2,51.7z"/>
	<polygon fill="#141421" points="64.1,127.1 61.4,232.4 61.9,233 90.5,233.1 	"/>
	<path fill="#202035" d="M101.3,24.5c0,0,1,32,26.6,33.2c0.9,0,23.4,1.5,26.8-33.3l-3.3-1.5l-1.9-1.1l-3,1.1c0,0-12,5.1-24.8,3.1
		c-2-0.3-12.8-2.9-14.6-4.3c-0.6-0.5-2.5,1.1-2.5,1.1L101.3,24.5z"/>
	<path fill="#141421" d="M106.8,29.2c0,0,1,22.3,21,23.1c0.8,0,19,0.3,21.3-23.1c0,0-7.9,4.9-21,5.5
		C127.3,34.8,119.4,35.3,106.8,29.2z"/>
	<path fill="#141421" d="M64.6,109l0.6-19.7l0.4-5.8l1.1-6.5l0.7-6.4l0.1-4.7l-0.2-4.7c0,0-2.6,12.3-4.4,17.3
		c-1.8,5-6.4,25.2-5,35.1L64.6,109z"/>
	<path fill="#141421" d="M191.5,109l-0.6-19.7l-0.4-5.8l-1.1-6.5l-0.7-6.4l-0.1-4.7l0.2-4.7c0,0,2.6,12.3,4.4,17.3
		c1.8,5,6.3,25.2,4.9,35.1L191.5,109z"/>
</g>
<g>
	<path fill="#453FBA" d="M179.3,84.6H0V42h179.3c2,0,3.7,1.5,3.7,3.4v35.9C183,83.1,181.4,84.6,179.3,84.6z"/>
	<g>
		<path fill="#FFFFFF" d="M21.5,68.2h3.2c0,0.9,0.4,1.6,1,2.1c0.6,0.5,1.5,0.8,2.6,0.8c1.1,0,2-0.3,2.6-0.8c0.6-0.5,0.9-1.2,0.9-2.1
			c0-0.8-0.2-1.4-0.7-2c-0.5-0.6-1.1-1-1.9-1.3L27,64.3c-1.7-0.5-2.9-1.2-3.8-2.3c-0.8-1-1.3-2.2-1.3-3.7c0-0.8,0.1-1.6,0.4-2.3
			c0.3-0.7,0.7-1.3,1.3-1.8c0.6-0.5,1.2-0.9,2-1.1c0.8-0.3,1.7-0.4,2.6-0.4c0.9,0,1.8,0.1,2.6,0.4c0.8,0.3,1.4,0.6,2,1.1
			c0.6,0.5,1,1.1,1.3,1.8c0.3,0.7,0.5,1.4,0.5,2.3h-3.2c0-0.9-0.3-1.5-0.9-2c-0.6-0.5-1.4-0.8-2.3-0.8s-1.7,0.2-2.3,0.7
			c-0.6,0.5-0.9,1.2-0.9,2c0,0.7,0.2,1.3,0.6,1.8c0.4,0.5,1.1,0.9,2,1.2l2.5,0.8c1.6,0.5,2.8,1.3,3.6,2.3c0.8,1,1.2,2.3,1.2,3.8
			c0,0.9-0.2,1.7-0.5,2.4c-0.3,0.7-0.8,1.3-1.4,1.8c-0.6,0.5-1.3,0.9-2.1,1.2c-0.8,0.3-1.8,0.4-2.8,0.4c-1,0-1.9-0.1-2.7-0.4
			c-0.8-0.3-1.5-0.6-2.1-1.1c-0.6-0.5-1.1-1.1-1.4-1.8C21.7,69.8,21.6,69.1,21.5,68.2z"/>
		<path fill="#FFFFFF" d="M45.4,73.9c-1,0-1.9-0.1-2.7-0.4c-0.8-0.3-1.5-0.7-2.1-1.3c-0.6-0.5-1-1.2-1.3-2c-0.3-0.8-0.5-1.6-0.5-2.6
			V59c0-0.9,0.2-1.8,0.5-2.6c0.3-0.8,0.8-1.4,1.3-2c0.6-0.5,1.3-1,2.1-1.3c0.8-0.3,1.7-0.4,2.7-0.4c1,0,1.9,0.1,2.7,0.4
			c0.8,0.3,1.5,0.7,2.1,1.3c0.6,0.5,1,1.2,1.3,2C51.8,57.2,52,58,52,59v8.7c0,0.9-0.2,1.8-0.5,2.6c-0.3,0.8-0.8,1.4-1.3,2
			c-0.6,0.5-1.3,1-2.1,1.3C47.3,73.7,46.4,73.9,45.4,73.9z M42,67.6c0,1,0.3,1.9,0.9,2.5c0.6,0.6,1.5,0.9,2.5,0.9
			c1,0,1.9-0.3,2.5-0.9c0.6-0.6,0.9-1.5,0.9-2.5V59c0-1.1-0.3-1.9-0.9-2.5c-0.6-0.6-1.5-0.9-2.5-0.9c-1,0-1.9,0.3-2.5,0.9
			C42.3,57.1,42,57.9,42,59V67.6z"/>
		<path fill="#FFFFFF" d="M60,53.1v17.6h9.3v2.9H56.9V53.1H60z"/>
		<path fill="#FFFFFF" d="M73.3,53.1h6.1c1,0,2,0.2,2.8,0.5c0.8,0.3,1.5,0.7,2.1,1.3c0.6,0.6,1.1,1.2,1.4,2c0.3,0.8,0.5,1.7,0.5,2.6
			v7.7c0,1-0.2,1.8-0.5,2.6c-0.3,0.8-0.8,1.5-1.4,2c-0.6,0.6-1.3,1-2.1,1.3c-0.8,0.3-1.8,0.5-2.8,0.5h-6.1V53.1z M76.5,70.7h2.9
			c1.1,0,2-0.3,2.6-1c0.7-0.6,1-1.5,1-2.6v-7.7c0-1.1-0.3-1.9-1-2.6c-0.7-0.6-1.5-1-2.6-1h-2.9V70.7z"/>
		<path fill="#FFFFFF" d="M113.8,73.9c-1,0-1.9-0.1-2.7-0.4c-0.8-0.3-1.5-0.7-2.1-1.3c-0.6-0.5-1-1.2-1.3-2
			c-0.3-0.8-0.5-1.6-0.5-2.6V59c0-0.9,0.2-1.8,0.5-2.6c0.3-0.8,0.8-1.4,1.3-2c0.6-0.5,1.3-1,2.1-1.3c0.8-0.3,1.7-0.4,2.7-0.4
			s1.9,0.1,2.7,0.4c0.8,0.3,1.5,0.7,2.1,1.3c0.6,0.5,1,1.2,1.3,2c0.3,0.8,0.5,1.6,0.5,2.6v8.7c0,0.9-0.2,1.8-0.5,2.6
			c-0.3,0.8-0.8,1.4-1.3,2c-0.6,0.5-1.3,1-2.1,1.3C115.7,73.7,114.8,73.9,113.8,73.9z M110.4,67.6c0,1,0.3,1.9,0.9,2.5
			s1.5,0.9,2.5,0.9s1.9-0.3,2.5-0.9c0.6-0.6,0.9-1.5,0.9-2.5V59c0-1.1-0.3-1.9-0.9-2.5c-0.6-0.6-1.5-0.9-2.5-0.9s-1.9,0.3-2.5,0.9
			c-0.6,0.6-0.9,1.5-0.9,2.5V67.6z"/>
		<path fill="#FFFFFF" d="M130.9,73.9c-2,0-3.6-0.5-4.7-1.6c-1.1-1.1-1.7-2.6-1.7-4.5V53.1h3.1v14.7c0,1.1,0.3,1.9,0.8,2.5
			c0.6,0.6,1.3,0.9,2.4,0.9c1,0,1.8-0.3,2.4-0.9c0.6-0.6,0.9-1.4,0.9-2.5V53.1h3.1v14.7c0,1.9-0.6,3.4-1.7,4.5
			C134.5,73.3,132.9,73.9,130.9,73.9z"/>
		<path fill="#FFFFFF" d="M140.7,55.9v-2.8h14.7v2.8h-5.8v17.7h-3.2V55.9H140.7z"/>
		<path fill="#FFFFFF" d="M162.8,71.9c0-0.6,0.2-1,0.5-1.3c0.4-0.3,0.8-0.5,1.4-0.5h0.7c0.6,0,1.1,0.2,1.4,0.5
			c0.4,0.3,0.5,0.8,0.5,1.3c0,0.6-0.2,1-0.5,1.3c-0.4,0.3-0.8,0.5-1.4,0.5h-0.7c-0.6,0-1.1-0.2-1.4-0.5
			C163,72.9,162.8,72.5,162.8,71.9z M163.3,53.1h3.5v3.7l-0.6,10.4H164l-0.6-10.4V53.1z"/>
	</g>
</g>
</svg>
