<?xml version="1.0" encoding="utf-8"?>
<!-- Generator: Adobe Illustrator 17.1.0, SVG Export Plug-In . SVG Version: 6.00 Build 0)  -->
<!DOCTYPE svg PUBLIC "-//W3C//DTD SVG 1.1//EN" "http://www.w3.org/Graphics/SVG/1.1/DTD/svg11.dtd">
<svg version="1.1" id="Capa_1" xmlns="http://www.w3.org/2000/svg" xmlns:xlink="http://www.w3.org/1999/xlink" x="0px" y="0px"
	 viewBox="0 0 512 512" enable-background="new 0 0 512 512" xml:space="preserve">
<rect x="0" fill="#9999FF" width="512" height="512"/>
<path fill="#453FBA" d="M463.9,171.4L463.9,171.4c-10.8-1.9-21.2,5.4-23,16.3l-8.6,50c-14,3-29-1.9-38.3-14.3
	c-5.9-7.9-17.8-7.9-23.7,0c-9.8,13.1-26.4,18.1-41.4,13.4c18.5-16.8,30.6-39.4,34.3-64c0.5-3.6-1.9-6.9-5.5-7.5
	c-3.6-0.5-6.9,1.9-7.5,5.5c-7,46.2-47.5,81-94.3,81c-52.6,0-95.3-42.8-95.3-95.3c0-52.6,42.8-95.3,95.3-95.3
	c46.8,0,87.3,34.8,94.3,81c0.5,3.6,3.9,6.1,7.5,5.5c3.6-0.5,6.1-3.9,5.5-7.5C355.3,87.2,309.6,48,256,48
	c-59.8,0-108.5,48.7-108.5,108.5c0,31.8,13.7,60.4,35.6,80.3c-14.8,4.6-31.5-0.1-41.4-13.4c-5.9-7.9-17.8-7.9-23.7,0
	c-9.2,12.4-24.3,17.3-38.3,14.3l-8.6-50c-1.9-11-12.3-18.1-23-16.3c-10.9,1.9-18.1,12.2-16.3,23l38.6,223.3
	c4.6,26.8,27.8,46.3,55,46.3h115.3c3.6,0,6.6-2.9,6.6-6.6c0-3.6-2.9-6.6-6.6-6.6H125.4c-20.8,0-38.5-14.9-42-35.4L44.8,192.2
	c-0.6-3.7,1.8-7.2,5.5-7.8c3.6-0.6,7.2,1.8,7.8,5.5l38.6,223.3c2.4,14,14.5,24.1,28.6,24.1h261.3c14.2,0,26.2-10.1,28.6-24.1
	c0.8-4.8,37.3-215.9,38.6-223.3c0.6-3.7,4.2-6.2,7.8-5.5c3.7,0.6,6.2,4.1,5.5,7.8l-38.6,223.3c-3.5,20.5-21.2,35.4-42,35.4H271.3
	c-3.6,0-6.6,2.9-6.6,6.6s2.9,6.6,6.6,6.6h115.3c27.2,0,50.3-19.5,55-46.3l38.6-223.3C482,183.6,474.8,173.3,463.9,171.4z
	 M402.3,410.9c-1.3,7.6-7.9,13.2-15.7,13.2H125.4c-7.8,0-14.4-5.6-15.7-13.2l-3.7-21.3c8.9-3.4,16.8-9.3,22.5-17
	c0.6-0.9,2-0.9,2.6,0c20.4,27.3,61.1,27.3,81.5,0c0.6-0.9,2-0.9,2.6,0c20.4,27.3,61.1,27.3,81.5,0c0.6-0.9,2-0.9,2.6,0
	c20.4,27.3,61.1,27.3,81.5,0c0.6-0.9,2-0.9,2.6,0c5.8,7.7,13.6,13.6,22.5,17L402.3,410.9z M408.3,376.4c-5.6-2.6-10.5-6.6-14.3-11.6
	c-5.9-7.9-17.8-7.9-23.7,0c-15.1,20.2-45.3,20.2-60.4,0c-5.9-7.9-17.8-7.9-23.7,0c-15.1,20.2-45.3,20.2-60.4,0
	c-5.9-7.9-17.8-7.9-23.7,0c-15.1,20.2-45.3,20.2-60.4,0c-5.9-7.9-17.8-7.9-23.7,0c-3.8,5-8.7,9-14.3,11.6l-9.4-54.4
	c13.6-1.7,25.8-8.8,34.2-20c0.6-0.9,2-0.9,2.6,0c20.4,27.3,61.1,27.3,81.5,0c0.6-0.9,2-0.9,2.6,0c20.4,27.3,61.1,27.3,81.5,0
	c0.6-0.9,2-0.9,2.6,0c20.4,27.3,61.1,27.3,81.5,0c0.6-0.9,2-0.9,2.6,0c8.4,11.2,20.6,18.3,34.2,20L408.3,376.4z M419.9,309
	c-10.3-1.1-19.6-6.4-25.9-14.9c-5.9-7.9-17.8-7.9-23.7,0c-15.1,20.2-45.3,20.2-60.4,0c-5.9-7.9-17.8-7.9-23.7,0
	c-15.1,20.2-45.3,20.2-60.4,0c-5.9-7.9-17.8-7.9-23.7,0c-15.1,20.2-45.3,20.2-60.4,0c-5.9-7.9-17.8-7.9-23.7,0
	c-6.3,8.5-15.6,13.8-25.9,14.9l-9.9-57.6c17.8,2,35.4-5.3,46.4-20.1c0.6-0.9,2-0.9,2.6,0c15.5,20.7,42.6,25.7,63.8,14.9
	c18.5,12.7,39.8,18.8,61.1,18.8c21.7,0,43-6.4,61.1-18.8c21.2,10.8,48.3,5.8,63.8-14.9c0.6-0.9,2-0.9,2.6,0
	c11.1,14.8,28.7,22.1,46.4,20.1L419.9,309z"/>
<path fill="#DDDDFF" d="M383.4,372.6c-0.6-0.9-2-0.9-2.6,0c-20.4,27.3-61.1,27.3-81.5,0c-0.6-0.9-2-0.9-2.6,0
	c-20.4,27.3-61.1,27.3-81.5,0c-0.6-0.9-2-0.9-2.6,0c-20.4,27.3-61.1,27.3-81.5,0c-0.6-0.9-2-0.9-2.6,0c-5.8,7.7-13.6,13.6-22.5,17
	l3.7,21.3c1.3,7.6,7.9,13.2,15.7,13.2h261.3c7.8,0,14.4-5.6,15.7-13.2l3.7-21.3C397.1,386.3,389.2,380.3,383.4,372.6z"/>
<path fill="#DDDDFF" d="M383.4,301.9c-0.6-0.9-2-0.9-2.6,0c-20.4,27.3-61.1,27.3-81.5,0c-0.6-0.9-2-0.9-2.6,0
	c-20.4,27.3-61.1,27.3-81.5,0c-0.6-0.9-2-0.9-2.6,0c-20.4,27.3-61.1,27.3-81.5,0c-0.6-0.9-2-0.9-2.6,0c-8.4,11.2-20.6,18.3-34.2,20
	l9.4,54.4c5.6-2.6,10.5-6.6,14.3-11.6c5.9-7.9,17.8-7.9,23.7,0c15.1,20.2,45.3,20.2,60.4,0c5.9-7.9,17.8-7.9,23.7,0
	c15.1,20.2,45.3,20.2,60.4,0c5.9-7.9,17.8-7.9,23.7,0c15.1,20.2,45.3,20.2,60.4,0c5.9-7.9,17.8-7.9,23.7,0c3.8,5,8.7,9,14.3,11.6
	l9.4-54.4C404.1,320.2,391.8,313.1,383.4,301.9z"/>
<path fill="#DDDDFF" d="M383.4,231.2c-0.6-0.9-2-0.9-2.6,0c-15.5,20.7-42.6,25.7-63.8,14.9C299,258.5,277.7,265,256,265
	c-21.3,0-42.6-6.2-61.1-18.8c-21.2,10.8-48.3,5.8-63.8-14.9c-0.6-0.9-2-0.9-2.6,0c-11.1,14.8-28.6,22.1-46.4,20.1l9.9,57.6
	c10.3-1.1,19.6-6.4,25.9-14.9c5.9-7.9,17.8-7.9,23.7,0c15.1,20.2,45.3,20.2,60.4,0c5.9-7.9,17.8-7.9,23.7,0
	c15.1,20.2,45.3,20.2,60.4,0c5.9-7.9,17.8-7.9,23.7,0c15.1,20.2,45.3,20.2,60.4,0c5.9-7.9,17.8-7.9,23.7,0
	c6.3,8.5,15.6,13.8,25.9,14.9l9.9-57.6C412.1,253.3,394.6,246.1,383.4,231.2z"/>
<g>
	<path fill="#DDDDFF" d="M237.9,147.8c4.3,2.4,7.6,5.7,10,10c2.4,4.3,3.6,9.3,3.6,14.9c0,5.7-1.3,10.7-3.9,15.1
		c-2.6,4.4-6.3,7.8-11,10.3c-4.7,2.5-10.1,3.7-16.2,3.7c-5.3,0-10.4-0.9-15.4-2.7c-5-1.8-9.3-4.2-12.6-7.4c-1.7-1.4-2.5-3.1-2.5-5.1
		c0-1.5,0.4-2.8,1.3-3.9c0.8-1.1,1.9-1.6,3-1.6c0.8,0,1.5,0.1,2.1,0.4c0.6,0.3,1.4,0.7,2.2,1.3c3.5,2.7,7,4.8,10.5,6.2
		c3.5,1.4,7.2,2.1,11.1,2.1c5.9,0,10.5-1.6,13.8-4.8c3.3-3.2,5-7.6,5-13.4c0-5.5-1.7-9.9-5-13.2c-3.3-3.3-7.8-5-13.4-5
		c-3.6,0-6.9,0.6-9.8,1.8c-2.9,1.2-5.6,3.2-8.1,5.8c-1.3,1.2-2.8,1.8-4.6,1.8c-1.4,0-2.6-0.4-3.6-1.3c-1-0.9-1.5-2.1-1.5-3.5v-41.8
		c0-1.9,0.5-3.5,1.6-4.6c1.1-1.1,2.6-1.7,4.6-1.7h43.7c1.9,0,3.5,0.5,4.6,1.4c1.1,0.9,1.7,2.2,1.7,3.8c0,1.7-0.6,3-1.7,3.9
		c-1.1,0.9-2.6,1.4-4.6,1.4h-37v28.2c4.7-3.9,10.5-5.8,17.4-5.8C228.7,144.2,233.7,145.4,237.9,147.8z"/>
	<path fill="#DDDDFF" d="M266.5,190.2c-5.5-7.8-8.2-19.1-8.2-34c0-15,2.7-26.4,8.2-34.2c5.5-7.8,13.4-11.7,23.8-11.7
		c10.4,0,18.4,3.9,23.8,11.6c5.5,7.7,8.2,19.1,8.2,34.1c0,15-2.7,26.4-8.2,34.2c-5.5,7.8-13.4,11.7-23.8,11.7
		C279.8,201.9,271.9,198,266.5,190.2z M304.6,182.8c3-5.7,4.6-14.6,4.6-26.8s-1.5-21.1-4.6-26.7c-3-5.6-7.8-8.4-14.3-8.4
		c-6.5,0-11.3,2.8-14.3,8.4c-3,5.6-4.6,14.5-4.6,26.7c0,12.1,1.5,21,4.6,26.7c3,5.7,7.8,8.6,14.3,8.6
		C296.8,191.3,301.6,188.5,304.6,182.8z"/>
</g>
</svg>
